<svg xmlns="http://www.w3.org/2000/svg" viewBox="0 0 1200 760" role="img" aria-label="Homepage wireframe">
  <rect width="1200" height="760" rx="36" fill="#fafafa"/>
  <rect x="36" y="36" width="1128" height="78" rx="22" fill="#ffffff" stroke="#e4e4e7"/>
  <rect x="60" y="58" width="148" height="18" rx="9" fill="#4f46e5"/>
  <rect x="842" y="54" width="126" height="28" rx="14" fill="#f4f4f5" stroke="#e4e4e7"/>
  <rect x="980" y="54" width="126" height="28" rx="14" fill="#f4f4f5" stroke="#e4e4e7"/>
  <rect x="36" y="138" width="220" height="586" rx="24" fill="#ffffff" stroke="#e4e4e7"/>
  <rect x="60" y="170" width="110" height="14" rx="7" fill="#71717a"/>
  <rect x="60" y="208" width="140" height="14" rx="7" fill="#a1a1aa"/>
  <rect x="60" y="246" width="120" height="14" rx="7" fill="#a1a1aa"/>
  <rect x="280" y="138" width="552" height="586" rx="24" fill="#ffffff" stroke="#e4e4e7"/>
  <rect x="312" y="176" width="338" height="24" rx="12" fill="#09090b"/>
  <rect x="312" y="222" width="450" height="16" rx="8" fill="#a1a1aa"/>
  <rect x="312" y="270" width="490" height="164" rx="20" fill="#fafafa" stroke="#e4e4e7"/>
  <rect x="312" y="456" width="490" height="140" rx="20" fill="#fafafa" stroke="#e4e4e7"/>
  <rect x="854" y="138" width="310" height="586" rx="24" fill="#ffffff" stroke="#e4e4e7"/>
  <rect x="886" y="176" width="120" height="16" rx="8" fill="#09090b"/>
  <rect x="886" y="216" width="180" height="12" rx="6" fill="#a1a1aa"/>
  <rect x="886" y="246" width="160" height="12" rx="6" fill="#a1a1aa"/>
  <rect x="886" y="276" width="140" height="12" rx="6" fill="#a1a1aa"/>
  <rect x="886" y="330" width="230" height="118" rx="18" fill="#fafafa" stroke="#e4e4e7"/>
</svg>
