<svg xmlns="http://www.w3.org/2000/svg" viewBox="0 0 1200 760" role="img" aria-label="Homepage wireframe">
  <rect width="1200" height="760" rx="36" fill="#0b0f14"/>
  <rect x="36" y="36" width="1128" height="78" rx="22" fill="#111722" stroke="#263043"/>
  <rect x="60" y="58" width="128" height="18" rx="9" fill="#8ab4ff"/>
  <rect x="860" y="54" width="110" height="28" rx="14" fill="#1c2432" stroke="#2b364a"/>
  <rect x="982" y="54" width="110" height="28" rx="14" fill="#1c2432" stroke="#2b364a"/>
  <rect x="36" y="138" width="200" height="586" rx="24" fill="#111722" stroke="#263043"/>
  <rect x="60" y="170" width="110" height="14" rx="7" fill="#7b8496"/>
  <rect x="60" y="208" width="140" height="14" rx="7" fill="#7b8496"/>
  <rect x="60" y="246" width="120" height="14" rx="7" fill="#7b8496"/>
  <rect x="264" y="138" width="590" height="586" rx="24" fill="#111722" stroke="#263043"/>
  <rect x="296" y="176" width="320" height="24" rx="12" fill="#dbe4f0"/>
  <rect x="296" y="222" width="450" height="16" rx="8" fill="#7b8496"/>
  <rect x="296" y="270" width="530" height="164" rx="20" fill="#0e131b" stroke="#263043"/>
  <rect x="296" y="456" width="530" height="140" rx="20" fill="#0e131b" stroke="#263043"/>
  <rect x="878" y="138" width="286" height="586" rx="24" fill="#111722" stroke="#263043"/>
  <rect x="910" y="176" width="120" height="16" rx="8" fill="#dbe4f0"/>
  <rect x="910" y="216" width="180" height="12" rx="6" fill="#7b8496"/>
  <rect x="910" y="246" width="160" height="12" rx="6" fill="#7b8496"/>
  <rect x="910" y="276" width="140" height="12" rx="6" fill="#7b8496"/>
  <rect x="910" y="330" width="220" height="118" rx="18" fill="#0e131b" stroke="#263043"/>
</svg>
