<svg xmlns="http://www.w3.org/2000/svg" viewBox="0 0 1200 560" role="img" aria-label="Code block wireframe">
  <rect width="1200" height="560" rx="32" fill="#09090b"/>
  <rect x="60" y="60" width="1080" height="440" rx="28" fill="#111318" stroke="#27272a"/>
  <rect x="60" y="60" width="1080" height="56" rx="28" fill="#15161a" stroke="#27272a"/>
  <circle cx="98" cy="88" r="8" fill="#8ab4ff"/>
  <rect x="124" y="80" width="140" height="16" rx="8" fill="#f4f4f5"/>
  <rect x="920" y="78" width="72" height="20" rx="10" fill="#27272a"/>
  <rect x="1004" y="78" width="72" height="20" rx="10" fill="#27272a"/>
  <rect x="92" y="150" width="960" height="14" rx="7" fill="#27272a"/>
  <rect x="92" y="182" width="840" height="14" rx="7" fill="#27272a"/>
  <rect x="92" y="214" width="900" height="14" rx="7" fill="#27272a"/>
  <rect x="92" y="246" width="720" height="14" rx="7" fill="#27272a"/>
  <rect x="92" y="278" width="980" height="14" rx="7" fill="#27272a"/>
  <rect x="92" y="310" width="840" height="14" rx="7" fill="#27272a"/>
</svg>
